<mxfile host="app.diagrams.net" modified="2023-10-25T22:27:35.473Z" agent="Mozilla/5.0 (Windows NT 10.0; Win64; x64) AppleWebKit/537.36 (KHTML, like Gecko) Chrome/118.0.0.0 Safari/537.36" etag="1i5g4Hal6TJKf57ea0rw" version="22.0.8" type="device">
  <diagram name="Page-1" id="b5b7bab2-c9e2-2cf4-8b2a-24fd1a2a6d21">
    <mxGraphModel dx="786" dy="1847" grid="1" gridSize="10" guides="1" tooltips="1" connect="1" arrows="1" fold="1" page="1" pageScale="1" pageWidth="827" pageHeight="1169" background="none" math="0" shadow="0">
      <root>
        <mxCell id="0" />
        <mxCell id="1" parent="0" />
        <mxCell id="mkbyTpelzLGyqAMYpUf6-1" style="edgeStyle=elbowEdgeStyle;rounded=0;html=1;dashed=1;labelBackgroundColor=none;startFill=0;endArrow=open;endFill=0;endSize=10;fontFamily=Verdana;fontSize=10;" parent="1" source="mkbyTpelzLGyqAMYpUf6-7" target="mkbyTpelzLGyqAMYpUf6-6" edge="1">
          <mxGeometry relative="1" as="geometry">
            <Array as="points">
              <mxPoint x="1500" y="130" />
            </Array>
          </mxGeometry>
        </mxCell>
        <mxCell id="mkbyTpelzLGyqAMYpUf6-2" style="edgeStyle=elbowEdgeStyle;rounded=0;html=1;dashed=1;labelBackgroundColor=none;startFill=0;endArrow=open;endFill=0;endSize=10;fontFamily=Verdana;fontSize=10;" parent="1" source="mkbyTpelzLGyqAMYpUf6-4" edge="1">
          <mxGeometry relative="1" as="geometry">
            <Array as="points">
              <mxPoint x="1738" y="70" />
            </Array>
            <mxPoint x="1738" y="90" as="sourcePoint" />
            <mxPoint x="1572" y="225" as="targetPoint" />
          </mxGeometry>
        </mxCell>
        <mxCell id="mkbyTpelzLGyqAMYpUf6-3" style="edgeStyle=elbowEdgeStyle;rounded=0;html=1;dashed=1;labelBackgroundColor=none;startFill=0;endArrow=open;endFill=0;endSize=10;fontFamily=Verdana;fontSize=10;" parent="1" source="mkbyTpelzLGyqAMYpUf6-7" edge="1">
          <mxGeometry relative="1" as="geometry">
            <Array as="points">
              <mxPoint x="1310" y="225" />
              <mxPoint x="1460" y="325" />
              <mxPoint x="1190" y="315" />
              <mxPoint x="1080" y="315" />
              <mxPoint x="1160" y="325" />
              <mxPoint x="1570" y="245" />
              <mxPoint x="1350" y="325" />
            </Array>
            <mxPoint x="1390" y="225" as="sourcePoint" />
            <mxPoint x="1310" y="80" as="targetPoint" />
          </mxGeometry>
        </mxCell>
        <mxCell id="mkbyTpelzLGyqAMYpUf6-4" value="Nyugta DB" style="shape=folder;fontStyle=1;spacingTop=10;tabWidth=50;tabHeight=17;tabPosition=left;html=1;rounded=0;shadow=0;comic=0;labelBackgroundColor=none;strokeColor=#000000;strokeWidth=1;fillColor=#ffffff;fontFamily=Verdana;fontSize=10;fontColor=#000000;align=center;" parent="1" vertex="1">
          <mxGeometry x="1654" y="10" width="112" height="70" as="geometry" />
        </mxCell>
        <mxCell id="mkbyTpelzLGyqAMYpUf6-5" value="Csoport DB" style="shape=folder;fontStyle=1;spacingTop=10;tabWidth=50;tabHeight=17;tabPosition=left;html=1;rounded=0;shadow=0;comic=0;labelBackgroundColor=none;strokeColor=#000000;strokeWidth=1;fillColor=#ffffff;fontFamily=Verdana;fontSize=10;fontColor=#000000;align=center;" parent="1" vertex="1">
          <mxGeometry x="1270" y="10" width="112" height="70" as="geometry" />
        </mxCell>
        <mxCell id="mkbyTpelzLGyqAMYpUf6-6" value="Résztvevő DB" style="shape=folder;fontStyle=1;spacingTop=10;tabWidth=50;tabHeight=17;tabPosition=left;html=1;rounded=0;shadow=0;comic=0;labelBackgroundColor=none;strokeColor=#000000;strokeWidth=1;fillColor=#ffffff;fontFamily=Verdana;fontSize=10;fontColor=#000000;align=center;" parent="1" vertex="1">
          <mxGeometry x="1470" y="10" width="112" height="70" as="geometry" />
        </mxCell>
        <mxCell id="mkbyTpelzLGyqAMYpUf6-7" value="Termék DB" style="shape=folder;fontStyle=1;spacingTop=10;tabWidth=50;tabHeight=17;tabPosition=left;html=1;rounded=0;shadow=0;comic=0;labelBackgroundColor=none;strokeColor=#000000;strokeWidth=1;fillColor=#ffffff;fontFamily=Verdana;fontSize=10;fontColor=#000000;align=center;" parent="1" vertex="1">
          <mxGeometry x="1460" y="180" width="112" height="70" as="geometry" />
        </mxCell>
        <mxCell id="mkbyTpelzLGyqAMYpUf6-9" style="rounded=0;html=1;dashed=1;labelBackgroundColor=none;startFill=0;endArrow=open;endFill=0;endSize=10;fontFamily=Verdana;fontSize=10;edgeStyle=elbowEdgeStyle;" parent="1" source="mkbyTpelzLGyqAMYpUf6-5" target="mkbyTpelzLGyqAMYpUf6-6" edge="1">
          <mxGeometry relative="1" as="geometry">
            <mxPoint x="1596" y="110" as="sourcePoint" />
            <mxPoint x="1597" y="158" as="targetPoint" />
          </mxGeometry>
        </mxCell>
        <mxCell id="mkbyTpelzLGyqAMYpUf6-10" style="edgeStyle=elbowEdgeStyle;rounded=0;html=1;entryX=0.559;entryY=0.251;entryPerimeter=0;dashed=1;labelBackgroundColor=none;startFill=0;endArrow=none;endFill=0;endSize=10;fontFamily=Verdana;fontSize=10;startArrow=open;startSize=10;" parent="1" source="mkbyTpelzLGyqAMYpUf6-11" target="mkbyTpelzLGyqAMYpUf6-12" edge="1">
          <mxGeometry relative="1" as="geometry" />
        </mxCell>
        <mxCell id="mkbyTpelzLGyqAMYpUf6-24" style="edgeStyle=elbowEdgeStyle;rounded=0;orthogonalLoop=1;jettySize=auto;html=1;startArrow=open;startFill=0;endArrow=none;endFill=0;startSize=10;dashed=1;endSize=10;" parent="1" source="mkbyTpelzLGyqAMYpUf6-11" target="mkbyTpelzLGyqAMYpUf6-18" edge="1">
          <mxGeometry relative="1" as="geometry">
            <Array as="points">
              <mxPoint x="1110" y="-90" />
              <mxPoint x="1130" y="-100" />
              <mxPoint x="1160" y="-30" />
            </Array>
          </mxGeometry>
        </mxCell>
        <mxCell id="mkbyTpelzLGyqAMYpUf6-11" value="Felhasználó DB" style="shape=folder;fontStyle=1;spacingTop=10;tabWidth=50;tabHeight=17;tabPosition=left;html=1;rounded=0;shadow=0;comic=0;labelBackgroundColor=none;strokeColor=#000000;strokeWidth=1;fillColor=#ffffff;fontFamily=Verdana;fontSize=10;fontColor=#000000;align=center;" parent="1" vertex="1">
          <mxGeometry x="1090" y="-70" width="112" height="70" as="geometry" />
        </mxCell>
        <mxCell id="mkbyTpelzLGyqAMYpUf6-12" value="Fiók hitelesítés" style="shape=folder;fontStyle=1;spacingTop=10;tabWidth=50;tabHeight=17;tabPosition=left;html=1;rounded=0;shadow=0;comic=0;labelBackgroundColor=none;strokeColor=#000000;strokeWidth=1;fillColor=#ffffff;fontFamily=Verdana;fontSize=10;fontColor=#000000;align=center;" parent="1" vertex="1">
          <mxGeometry x="1090" y="80" width="112" height="70" as="geometry" />
        </mxCell>
        <mxCell id="mkbyTpelzLGyqAMYpUf6-14" style="edgeStyle=elbowEdgeStyle;rounded=0;html=1;entryX=0.559;entryY=0.251;entryPerimeter=0;dashed=1;labelBackgroundColor=none;startFill=0;endArrow=open;endFill=0;endSize=10;fontFamily=Verdana;fontSize=10;" parent="1" source="mkbyTpelzLGyqAMYpUf6-17" target="mkbyTpelzLGyqAMYpUf6-19" edge="1">
          <mxGeometry relative="1" as="geometry" />
        </mxCell>
        <mxCell id="mkbyTpelzLGyqAMYpUf6-15" style="edgeStyle=elbowEdgeStyle;rounded=0;html=1;dashed=1;labelBackgroundColor=none;startFill=0;endArrow=open;endFill=0;endSize=10;fontFamily=Verdana;fontSize=10;" parent="1" source="mkbyTpelzLGyqAMYpUf6-17" target="mkbyTpelzLGyqAMYpUf6-20" edge="1">
          <mxGeometry relative="1" as="geometry">
            <Array as="points">
              <mxPoint x="1680" y="-200" />
              <mxPoint x="1660" y="-260" />
              <mxPoint x="1690" y="-230" />
            </Array>
          </mxGeometry>
        </mxCell>
        <mxCell id="mkbyTpelzLGyqAMYpUf6-16" style="edgeStyle=elbowEdgeStyle;rounded=0;html=1;dashed=1;labelBackgroundColor=none;startFill=0;endArrow=open;endFill=0;endSize=10;fontFamily=Verdana;fontSize=10;" parent="1" source="mkbyTpelzLGyqAMYpUf6-17" target="mkbyTpelzLGyqAMYpUf6-18" edge="1">
          <mxGeometry relative="1" as="geometry">
            <Array as="points">
              <mxPoint x="1300" y="-200" />
              <mxPoint x="1350" y="-210" />
            </Array>
          </mxGeometry>
        </mxCell>
        <mxCell id="mkbyTpelzLGyqAMYpUf6-17" value="Nyugtafelosztó UI" style="shape=folder;fontStyle=1;spacingTop=10;tabWidth=50;tabHeight=17;tabPosition=left;html=1;rounded=0;shadow=0;comic=0;labelBackgroundColor=none;strokeColor=#000000;strokeWidth=1;fillColor=#ffffff;fontFamily=Verdana;fontSize=10;fontColor=#000000;align=center;" parent="1" vertex="1">
          <mxGeometry x="1480" y="-300" width="112" height="70" as="geometry" />
        </mxCell>
        <mxCell id="mkbyTpelzLGyqAMYpUf6-18" value="Csoportok" style="shape=folder;fontStyle=1;spacingTop=10;tabWidth=50;tabHeight=17;tabPosition=left;html=1;rounded=0;shadow=0;comic=0;labelBackgroundColor=none;strokeColor=#000000;strokeWidth=1;fillColor=#ffffff;fontFamily=Verdana;fontSize=10;fontColor=#000000;align=center;" parent="1" vertex="1">
          <mxGeometry x="1270" y="-170" width="112" height="70" as="geometry" />
        </mxCell>
        <mxCell id="mkbyTpelzLGyqAMYpUf6-19" value="Résztvevők" style="shape=folder;fontStyle=1;spacingTop=10;tabWidth=50;tabHeight=17;tabPosition=left;html=1;rounded=0;shadow=0;comic=0;labelBackgroundColor=none;strokeColor=#000000;strokeWidth=1;fillColor=#ffffff;fontFamily=Verdana;fontSize=10;fontColor=#000000;align=center;" parent="1" vertex="1">
          <mxGeometry x="1470" y="-170" width="112" height="70" as="geometry" />
        </mxCell>
        <mxCell id="mkbyTpelzLGyqAMYpUf6-20" value="Nyugták" style="shape=folder;fontStyle=1;spacingTop=10;tabWidth=50;tabHeight=17;tabPosition=left;html=1;rounded=0;shadow=0;comic=0;labelBackgroundColor=none;strokeColor=#000000;strokeWidth=1;fillColor=#ffffff;fontFamily=Verdana;fontSize=10;fontColor=#000000;align=center;" parent="1" vertex="1">
          <mxGeometry x="1654" y="-170" width="112" height="70" as="geometry" />
        </mxCell>
        <mxCell id="mkbyTpelzLGyqAMYpUf6-22" style="rounded=0;html=1;dashed=1;labelBackgroundColor=none;startFill=0;endArrow=none;endFill=0;endSize=10;fontFamily=Verdana;fontSize=10;startSize=10;startArrow=open;edgeStyle=elbowEdgeStyle;" parent="1" source="mkbyTpelzLGyqAMYpUf6-11" target="mkbyTpelzLGyqAMYpUf6-19" edge="1">
          <mxGeometry relative="1" as="geometry">
            <mxPoint x="1252" y="35" as="sourcePoint" />
            <mxPoint x="1534" y="35" as="targetPoint" />
            <Array as="points">
              <mxPoint x="1520" y="-30" />
              <mxPoint x="1400" />
              <mxPoint x="1530" y="-60" />
              <mxPoint x="1430" y="-40" />
            </Array>
          </mxGeometry>
        </mxCell>
        <mxCell id="mkbyTpelzLGyqAMYpUf6-28" style="edgeStyle=elbowEdgeStyle;rounded=0;html=1;dashed=1;labelBackgroundColor=none;startFill=0;endArrow=open;endFill=0;endSize=10;fontFamily=Verdana;fontSize=10;" parent="1" source="mkbyTpelzLGyqAMYpUf6-18" target="mkbyTpelzLGyqAMYpUf6-5" edge="1">
          <mxGeometry relative="1" as="geometry">
            <mxPoint x="1543" y="-220" as="sourcePoint" />
            <mxPoint x="1543" y="-142" as="targetPoint" />
            <Array as="points">
              <mxPoint x="1290" y="-50" />
              <mxPoint x="1300" y="-70" />
            </Array>
          </mxGeometry>
        </mxCell>
        <mxCell id="mkbyTpelzLGyqAMYpUf6-29" style="edgeStyle=elbowEdgeStyle;rounded=0;html=1;dashed=1;labelBackgroundColor=none;startFill=0;endArrow=open;endFill=0;endSize=10;fontFamily=Verdana;fontSize=10;" parent="1" source="mkbyTpelzLGyqAMYpUf6-19" target="mkbyTpelzLGyqAMYpUf6-6" edge="1">
          <mxGeometry relative="1" as="geometry">
            <mxPoint x="1553" y="-210" as="sourcePoint" />
            <mxPoint x="1553" y="-132" as="targetPoint" />
            <Array as="points">
              <mxPoint x="1490" y="-60" />
            </Array>
          </mxGeometry>
        </mxCell>
        <mxCell id="mkbyTpelzLGyqAMYpUf6-30" style="edgeStyle=elbowEdgeStyle;rounded=0;html=1;dashed=1;labelBackgroundColor=none;startFill=0;endArrow=open;endFill=0;endSize=10;fontFamily=Verdana;fontSize=10;" parent="1" source="mkbyTpelzLGyqAMYpUf6-20" target="mkbyTpelzLGyqAMYpUf6-4" edge="1">
          <mxGeometry relative="1" as="geometry">
            <mxPoint x="1563" y="-200" as="sourcePoint" />
            <mxPoint x="1563" y="-122" as="targetPoint" />
            <Array as="points">
              <mxPoint x="1670" y="-60" />
              <mxPoint x="1680" y="-70" />
            </Array>
          </mxGeometry>
        </mxCell>
      </root>
    </mxGraphModel>
  </diagram>
</mxfile>
